<svg width="18" height="18" viewBox="0 0 18 18" fill="none" xmlns="http://www.w3.org/2000/svg">
<path d="M7.95 12.45L13.2375 7.1625L12.1875 6.1125L7.95 10.35L5.8125 8.2125L4.7625 9.2625L7.95 12.45ZM9 16.5C7.9625 16.5 6.9875 16.303 6.075 15.909C5.1625 15.515 4.36875 14.9808 3.69375 14.3063C3.01875 13.6313 2.4845 12.8375 2.091 11.925C1.6975 11.0125 1.5005 10.0375 1.5 9C1.5 7.9625 1.697 6.9875 2.091 6.075C2.485 5.1625 3.01925 4.36875 3.69375 3.69375C4.36875 3.01875 5.1625 2.4845 6.075 2.091C6.9875 1.6975 7.9625 1.5005 9 1.5C10.0375 1.5 11.0125 1.697 11.925 2.091C12.8375 2.485 13.6313 3.01925 14.3063 3.69375C14.9813 4.36875 15.5157 5.1625 15.9097 6.075C16.3037 6.9875 16.5005 7.9625 16.5 9C16.5 10.0375 16.303 11.0125 15.909 11.925C15.515 12.8375 14.9808 13.6313 14.3063 14.3063C13.6313 14.9813 12.8375 15.5157 11.925 15.9097C11.0125 16.3037 10.0375 16.5005 9 16.5Z" fill="black"/>
</svg>
